<svg xmlns="http://www.w3.org/2000/svg" xmlns:xlink="http://www.w3.org/1999/xlink" viewBox="0,0,256,256" width="512px" height="512px" fill-rule="nonzero"><g fill="#000000" fill-rule="nonzero" stroke="none" stroke-width="1" stroke-linecap="butt" stroke-linejoin="miter" stroke-miterlimit="10" stroke-dasharray="" stroke-dashoffset="0" font-family="none" font-weight="none" font-size="none" text-anchor="none" style="mix-blend-mode: normal"><g transform="scale(4,4)"><path d="M57.125,33.647l3.484,3.397l-4.437,2.002c-1.178,0.532 -1.687,1.93 -1.126,3.094l2.112,4.385l-4.853,0.364c-1.289,0.097 -2.245,1.236 -2.117,2.523l0.485,4.842l-4.685,-1.318c-1.244,-0.35 -2.533,0.394 -2.852,1.647l-1.201,4.716l-3.952,-2.84c-1.05,-0.754 -2.515,-0.496 -3.243,0.572l-2.74,4.02l-2.742,-4.021c-0.728,-1.068 -2.193,-1.326 -3.243,-0.572l-3.952,2.84l-1.201,-4.716c-0.319,-1.253 -1.607,-1.997 -2.852,-1.647l-4.685,1.318l0.485,-4.842c0.129,-1.286 -0.828,-2.426 -2.117,-2.523l-4.853,-0.364l2.112,-4.385c0.561,-1.165 0.052,-2.563 -1.126,-3.094l-4.437,-2.002l3.484,-3.397c0.926,-0.903 0.926,-2.391 0,-3.293l-3.484,-3.397l4.437,-2.002c1.178,-0.532 1.687,-1.93 1.126,-3.094l-2.112,-4.385l4.853,-0.364c1.289,-0.097 2.245,-1.236 2.117,-2.523l-0.485,-4.842l4.685,1.318c1.244,0.35 2.533,-0.394 2.852,-1.647l1.201,-4.716l3.952,2.84c1.05,0.754 2.515,0.496 3.243,-0.572l2.742,-4.02l2.742,4.021c0.728,1.068 2.193,1.326 3.243,0.572l3.952,-2.84l1.201,4.716c0.319,1.253 1.607,1.997 2.852,1.647l4.685,-1.318l-0.485,4.842c-0.129,1.286 0.828,2.426 2.117,2.523l4.853,0.364l-2.112,4.385c-0.561,1.165 -0.052,2.563 1.126,3.094l4.437,2.002l-3.484,3.397c-0.927,0.902 -0.927,2.39 -0.002,3.293zM52,32c0,-11.028 -8.972,-20 -20,-20c-11.028,0 -20,8.972 -20,20c0,11.028 8.972,20 20,20c11.028,0 20,-8.972 20,-20z"></path></g></g></svg>